<svg width="154" height="154" viewBox="0 0 154 154" fill="none" xmlns="http://www.w3.org/2000/svg">
<rect width="154" height="154" rx="7.24706" fill="#FAFAFA"/>
<path d="M69.3465 76.7271H83.2273M64.894 78.5597H69.6617M82.1973 78.5597H88.5928" stroke="#E6E6E6" stroke-width="0.905882" stroke-linecap="round" stroke-linejoin="round"/>
<path fill-rule="evenodd" clip-rule="evenodd" d="M67.0442 50.6758C67.007 50.6761 66.9702 50.6839 66.9359 50.6986C66.9017 50.7134 66.8707 50.7348 66.8448 50.7616C66.819 50.7884 66.7987 50.8201 66.7852 50.8548C66.7716 50.8896 66.7652 50.9267 66.7661 50.9639C66.7661 51.1596 66.6819 51.2493 66.4871 51.2493C66.1039 51.2402 66.1039 51.82 66.4871 51.8155C66.6746 51.8155 66.7661 51.8671 66.7661 52.0881C66.7571 52.4713 67.3368 52.4713 67.3323 52.0881C67.3323 51.8879 67.4265 51.8155 67.6122 51.8155C67.9945 51.8245 67.9945 51.2438 67.6122 51.2493C67.3586 51.2493 67.3314 51.1043 67.3314 50.9639C67.3314 50.8036 67.2046 50.674 67.0442 50.6758ZM59.3515 59.8316C59.3004 59.8322 59.2499 59.8428 59.203 59.8631C59.156 59.8833 59.1135 59.9126 59.078 59.9494C59.0424 59.9861 59.0145 60.0295 58.9959 60.077C58.9772 60.1246 58.9681 60.1754 58.9692 60.2265C58.9692 60.4956 58.8542 60.6179 58.5869 60.6179C58.0615 60.6088 58.0615 61.4024 58.5869 61.3952C58.8442 61.3952 58.9692 61.4667 58.9692 61.7702C58.9602 62.2956 59.7537 62.2956 59.7465 61.7702C59.7465 61.4939 59.8751 61.3952 60.1306 61.3952C60.656 61.4042 60.656 60.6106 60.1306 60.6179C59.7836 60.6179 59.7465 60.4195 59.7465 60.2265C59.7471 60.1745 59.7373 60.1229 59.7176 60.0747C59.698 60.0265 59.6689 59.9827 59.6321 59.9459C59.5953 59.9091 59.5516 59.88 59.5034 59.8604C59.4552 59.8408 59.4035 59.831 59.3515 59.8316Z" fill="#FFCC00"/>
<path fill-rule="evenodd" clip-rule="evenodd" d="M60.0263 66.1523C59.9085 66.1523 59.8143 66.251 59.8161 66.3697C59.8161 66.5164 59.7527 66.5834 59.6069 66.5834C59.3179 66.5744 59.3179 67.0147 59.6069 67.0101C59.7482 67.0101 59.8161 67.049 59.8161 67.2166C59.8071 67.5047 60.2473 67.5047 60.2428 67.2166C60.2428 67.0653 60.3135 67.0101 60.4539 67.0101C60.7428 67.0101 60.7428 66.5798 60.4539 66.5843C60.2636 66.5843 60.2428 66.4757 60.2428 66.3688C60.2432 66.3402 60.2378 66.3118 60.2271 66.2853C60.2163 66.2588 60.2004 66.2348 60.1802 66.2145C60.1601 66.1943 60.1361 66.1783 60.1096 66.1674C60.0832 66.1566 60.0549 66.152 60.0263 66.1523Z" fill="#12141A"/>
<path fill-rule="evenodd" clip-rule="evenodd" d="M79.1123 49.9292C79.075 49.9294 79.0382 49.9371 79.0039 49.9517C78.9696 49.9663 78.9386 49.9876 78.9126 50.0144C78.8867 50.0411 78.8663 50.0727 78.8527 50.1074C78.839 50.142 78.8325 50.1791 78.8333 50.2164C78.8333 50.413 78.7491 50.5017 78.5543 50.5017C78.172 50.4927 78.172 51.0734 78.5543 51.0679C78.7418 51.0679 78.8333 51.1196 78.8333 51.3415C78.8242 51.7247 79.4049 51.7247 79.3995 51.3415C79.3995 51.1404 79.4937 51.0679 79.6794 51.0679C80.0626 51.077 80.0626 50.4972 79.6794 50.5017C79.4267 50.5017 79.3995 50.3568 79.3995 50.2164C79.3998 50.1786 79.3927 50.141 79.3784 50.106C79.3641 50.071 79.3429 50.0393 79.3162 50.0125C79.2894 49.9858 79.2576 49.9646 79.2226 49.9503C79.1876 49.936 79.1501 49.9288 79.1123 49.9292Z" fill="#FF6E3F"/>
<path fill-rule="evenodd" clip-rule="evenodd" d="M88.8401 59.2432C88.7223 59.2432 88.629 59.3428 88.6308 59.4606C88.6308 59.6082 88.5674 59.6753 88.4206 59.6753C88.1326 59.6662 88.1326 60.1065 88.4206 60.102C88.562 60.102 88.6308 60.1409 88.6308 60.3076C88.6218 60.5966 89.062 60.5966 89.0575 60.3076C89.0575 60.1563 89.1281 60.102 89.2685 60.102C89.5566 60.111 89.5566 59.6707 89.2685 59.6762C89.0783 59.6762 89.0575 59.5666 89.0575 59.4606C89.0578 59.4319 89.0525 59.4035 89.0417 59.377C89.0309 59.3504 89.0149 59.3263 88.9946 59.306C88.9744 59.2858 88.9502 59.2698 88.9237 59.259C88.8972 59.2482 88.8687 59.2428 88.8401 59.2432Z" fill="#12141A"/>
<path fill-rule="evenodd" clip-rule="evenodd" d="M94.6346 66.2979C94.5835 66.2983 94.533 66.3089 94.486 66.3291C94.439 66.3492 94.3965 66.3783 94.3609 66.415C94.3252 66.4516 94.2972 66.4949 94.2784 66.5425C94.2597 66.59 94.2505 66.6408 94.2514 66.6919C94.2514 66.9618 94.1364 67.0841 93.8692 67.0841C93.3437 67.075 93.3437 67.8686 93.8692 67.8614C94.1264 67.8614 94.2514 67.9329 94.2514 68.2355C94.2424 68.7609 95.0368 68.7609 95.0287 68.2355C95.0287 67.9601 95.1582 67.8614 95.4128 67.8614C95.9382 67.8704 95.9382 67.0759 95.4128 67.0841C95.0667 67.0841 95.0287 66.8848 95.0287 66.6919C95.0292 66.64 95.0193 66.5885 94.9997 66.5405C94.98 66.4925 94.951 66.4489 94.9143 66.4122C94.8777 66.3755 94.834 66.3465 94.786 66.3268C94.738 66.3072 94.6865 66.2974 94.6346 66.2979Z" fill="#FF6E3F"/>
<path d="M64.3421 63.6917C66.9492 62.2694 70.2249 63.2387 71.6498 65.8513C73.0757 68.4648 72.1027 71.716 69.4956 73.1391C66.8894 74.5614 63.6291 73.6192 62.2033 71.0058C61.8491 70.3595 61.6316 69.6474 61.5641 68.9136C61.4966 68.1798 61.5807 67.4399 61.811 66.74C62.233 65.4371 63.139 64.346 64.3421 63.6917Z" fill="#FFCC00"/>
<path fill-rule="evenodd" clip-rule="evenodd" d="M64.3359 66.2827L64.941 68.6987H64.0161V69.3029H65.0914L65.4691 70.8121H66.2047L66.7147 69.3029H67.3561L67.8471 70.8121H68.6017L68.9794 69.3029H70.0547V68.6987H69.1307L69.734 66.2827H69.1117L68.5075 68.6987H67.79L67.3941 67.4911H66.6767L66.2808 68.6987H65.5634L64.9591 66.2827H64.3359ZM67.0354 68.359L67.1487 68.6987H66.9222L67.0354 68.359ZM65.7146 69.3029H66.0734L65.865 69.9443L65.7146 69.3029ZM67.9975 69.3029H68.3562L68.2058 69.9443L67.9975 69.3029Z" fill="#FF6E3F"/>
<path d="M68.3407 63.5788C65.6792 62.7961 62.8873 64.3262 62.1028 66.9958C61.3174 69.6664 62.8438 72.4311 65.5071 73.2156C65.5986 73.2428 65.6919 73.26 65.7834 73.2808C64.5744 72.8573 63.5746 71.9851 62.9907 70.845C62.4067 69.7048 62.2835 68.3837 62.6463 67.1552C63.0071 65.9232 63.8256 64.8759 64.934 64.2282C66.0423 63.5805 67.3566 63.3816 68.607 63.6721C68.5182 63.6395 68.4322 63.6059 68.3407 63.5788Z" fill="white"/>
<path d="M68.387 63.592C71.0484 64.3738 72.5676 67.1721 71.7831 69.8417C71.598 70.4741 71.2898 71.0636 70.8762 71.5764C70.4625 72.0893 69.9516 72.5153 69.3728 72.8301C68.794 73.1448 68.1586 73.3421 67.5033 73.4105C66.848 73.479 66.1856 73.4172 65.5543 73.2288C65.4619 73.2017 65.3749 73.1654 65.2861 73.1337C67.8634 73.7407 70.0022 71.7096 70.649 69.5083C71.2967 67.307 70.6037 64.4136 68.1125 63.5259C68.204 63.5458 68.2955 63.5648 68.3879 63.592H68.387Z" fill="#FF6E3F"/>
<path d="M62.6668 65.1202C63.1198 64.5329 63.6903 64.0464 64.3417 63.6917C66.9489 62.2694 70.2245 63.2387 71.6495 65.8513C71.9838 66.4637 72.1858 67.1105 72.2664 67.7609M72.2664 69.0898C72.1918 69.6829 72.0182 70.2592 71.7528 70.7947C71.261 71.7903 70.473 72.6093 69.4971 73.1391C66.8918 74.5614 63.6315 73.6192 62.2048 71.0058C61.713 70.1067 61.4882 69.0859 61.5571 68.0635M61.8134 66.7409C61.8714 66.5615 61.9384 66.3867 62.0154 66.2155" stroke="#12141A" stroke-width="0.905882" stroke-miterlimit="10" stroke-linecap="round" stroke-linejoin="round"/>
<path d="M88.3562 63.8185C90.8926 65.3658 91.6898 68.6876 90.1408 71.2286C88.5899 73.7696 85.288 74.5532 82.7524 73.006C80.2168 71.4596 79.4024 68.1658 80.9524 65.6239C81.335 64.994 81.843 64.4495 82.4448 64.0241C83.0466 63.5986 83.7295 63.3014 84.4509 63.1509C84.6348 63.1128 84.8205 63.0838 85.0071 63.0648C86.1761 62.9412 87.3532 63.2055 88.3562 63.8185Z" fill="#FFCC00"/>
<path d="M85.6717 63.4112C82.8979 63.3441 80.597 65.5454 80.53 68.3274C80.5131 68.9861 80.6266 69.6416 80.864 70.2563C81.1014 70.8709 81.4579 71.4326 81.9131 71.909C82.3683 72.3854 82.9132 72.7672 83.5164 73.0323C84.1196 73.2974 84.7693 73.4406 85.4281 73.4537C85.5241 73.4537 85.6183 73.4446 85.7125 73.4446C84.435 73.3486 83.2434 72.7652 82.3841 71.815C81.5248 70.8648 81.0637 69.6208 81.0961 68.3401C81.1257 67.0564 81.6455 65.8326 82.5487 64.9199C83.4519 64.0073 84.6701 63.4749 85.9535 63.4319C85.8593 63.4229 85.7669 63.4121 85.6708 63.4103L85.6717 63.4112Z" fill="white"/>
<path d="M85.7202 63.4126C88.4931 63.4796 90.6844 65.7887 90.6183 68.5706C90.6031 69.2294 90.4579 69.8786 90.191 70.481C89.9241 71.0834 89.5408 71.6272 89.0631 72.0809C88.5853 72.5347 88.0226 72.8895 87.4072 73.125C86.7919 73.3606 86.136 73.4721 85.4774 73.4533C85.3814 73.4533 85.2881 73.4398 85.1938 73.4326C87.8408 73.3501 89.3808 70.8354 89.437 68.5417C89.4914 66.2489 88.0736 63.6327 85.4375 63.4207C85.5317 63.4207 85.625 63.4117 85.7202 63.4126Z" fill="#FF6E3F"/>
<path d="M86.2817 63.0822C87.0169 63.1812 87.7234 63.4323 88.3562 63.8195C90.8927 65.3659 91.6899 68.6878 90.1408 71.2278C89.7902 71.8046 89.3338 72.3098 88.7956 72.7171M87.6433 73.3793C86.8566 73.709 86.0029 73.8471 85.1524 73.7822C84.3019 73.7173 83.4791 73.4513 82.7515 73.0061C80.2169 71.4598 79.4025 68.166 80.9524 65.6241C81.4852 64.7483 82.2571 64.043 83.1773 63.5913M84.4509 63.1519C84.6348 63.113 84.8206 63.084 85.0072 63.0649" stroke="#12141A" stroke-width="0.905882" stroke-miterlimit="10" stroke-linecap="round" stroke-linejoin="round"/>
<path fill-rule="evenodd" clip-rule="evenodd" d="M82.6356 66.2827L83.2398 68.6987H82.3149V69.3029H83.3911L83.768 70.8121H84.5045L85.0136 69.3029H85.6549L86.1459 70.8121H86.9005L87.2783 69.3029H88.3545V68.6987H87.4296L88.0329 66.2827H87.4105L86.8063 68.6987H86.0898L85.693 67.4911H84.9755L84.5796 68.6987H83.8622L83.2589 66.2827H82.6356ZM85.3352 68.359L85.4475 68.6987H85.221L85.3352 68.359ZM84.0135 69.3029H84.3722L84.1638 69.9443L84.0135 69.3029ZM86.2963 69.3029H86.6559L86.5046 69.9443L86.2963 69.3029Z" fill="#FF6E3F"/>
<path d="M76.0951 55.2866C80.5629 55.2866 84.1901 58.9265 84.1901 63.4033C84.1901 67.882 80.5629 71.4747 76.0951 71.4747C71.6291 71.4747 68.002 67.882 68.002 63.4033C68.002 61.8035 68.4658 60.3097 69.2657 59.0506C69.7818 58.2384 70.4375 57.5238 71.2024 56.9399C72.6071 55.8656 74.3268 55.2845 76.0951 55.2866Z" fill="#FFCC00"/>
<path d="M76.0953 55.8271C71.9228 55.8271 68.543 59.2206 68.543 63.4057C68.543 67.5936 71.9192 70.9363 76.0953 70.9363C76.2403 70.9363 76.3807 70.9218 76.5229 70.9137C72.5461 70.6944 69.3954 67.4487 69.3954 63.4057C69.3954 59.3655 72.5479 56.0726 76.5211 55.8488C76.3798 55.8398 76.2393 55.8262 76.0953 55.8262V55.8271Z" fill="white"/>
<path d="M76.1683 55.8267C80.3408 55.8267 83.7215 59.2201 83.7215 63.4053C83.7215 67.5932 80.3453 70.9359 76.1683 70.9359C76.0234 70.9359 75.8829 70.9214 75.7407 70.9132C79.7175 70.694 81.9433 66.8567 81.9433 63.4053C81.9433 59.9539 79.7148 56.0721 75.7425 55.8484C75.8848 55.8393 76.0243 55.8267 76.1683 55.8267Z" fill="#FF6E3F"/>
<path d="M72.8539 55.9642C73.8755 55.5158 74.9794 55.285 76.0951 55.2866C80.5629 55.2866 84.1901 58.9265 84.1901 63.4033C84.1901 64.4523 83.9908 65.4524 83.6293 66.3692M82.6691 68.123C82.1422 68.8513 81.4978 69.4869 80.7622 70.0036C79.3958 70.9642 77.7654 71.4781 76.0951 71.4747C71.6291 71.4747 68.002 67.882 68.002 63.4033C68.002 61.8035 68.4658 60.3097 69.2657 59.0506M70.5565 57.4879C70.7622 57.2941 70.9778 57.1111 71.2024 56.9399" stroke="#12141A" stroke-width="0.905882" stroke-miterlimit="10" stroke-linecap="round" stroke-linejoin="round"/>
<path fill-rule="evenodd" clip-rule="evenodd" d="M71.7759 59.9414L72.7425 63.8068H71.2632V64.7734H72.9844L73.5877 67.1885H74.7653L75.5806 64.7734H76.6079L77.3924 67.1885H78.6008L79.2041 64.7734H80.9253V63.8068H79.446L80.4126 59.9414H79.4161L78.4495 63.8068H77.3018L76.6677 61.8745H75.5208L74.8867 63.8068H73.739L72.7724 59.9414H71.7759ZM76.0943 63.2642L76.2754 63.8077H75.9131L76.0943 63.2642ZM73.9808 64.7743H74.5543L74.2218 65.8006L73.9808 64.7743ZM77.6343 64.7743H78.2077L77.9667 65.8006L77.6343 64.7743Z" fill="#FF6E3F"/>
<path d="M59.5168 108.473C58.6206 108.473 57.8216 108.271 57.1199 107.865C56.4266 107.459 55.8812 106.892 55.4838 106.165C55.0949 105.438 54.9004 104.614 54.9004 103.692C54.9004 102.762 55.0949 101.938 55.4838 101.219C55.8812 100.492 56.4266 99.9255 57.1199 99.5197C57.8216 99.1138 58.6206 98.9109 59.5168 98.9109C60.1425 98.9109 60.7343 99.0335 61.2924 99.2787C61.8504 99.5239 62.345 99.8663 62.7762 100.306L61.8884 101.181C61.601 100.843 61.2459 100.577 60.8231 100.382C60.4088 100.188 59.9692 100.09 59.5041 100.09C58.8616 100.09 58.2951 100.243 57.8047 100.547C57.3143 100.843 56.9339 101.266 56.6633 101.815C56.3927 102.356 56.2575 102.982 56.2575 103.692C56.2575 104.402 56.3927 105.032 56.6633 105.582C56.9339 106.123 57.3143 106.546 57.8047 106.85C58.2951 107.146 58.8616 107.294 59.5041 107.294C59.9776 107.294 60.413 107.197 60.8104 107.002C61.2078 106.808 61.5502 106.55 61.8377 106.229L62.7762 107.078C61.8461 108.017 60.7597 108.482 59.5168 108.473ZM66.7915 107.281C67.265 107.281 67.6455 107.108 67.933 106.761C68.2204 106.415 68.3642 105.954 68.3642 105.379C68.3642 104.812 68.2204 104.356 67.933 104.009C67.6455 103.654 67.265 103.477 66.7915 103.477C66.3181 103.477 65.9376 103.65 65.6501 103.997C65.3627 104.343 65.2189 104.804 65.2189 105.379C65.2189 105.954 65.3627 106.415 65.6501 106.761C65.9376 107.108 66.3181 107.281 66.7915 107.281ZM66.7915 102.322C67.358 102.322 67.8611 102.454 68.3007 102.716C68.7404 102.978 69.0828 103.341 69.328 103.806C69.5817 104.263 69.7085 104.787 69.7085 105.379C69.7085 105.962 69.5817 106.487 69.328 106.952C69.0828 107.417 68.7404 107.78 68.3007 108.042C67.8611 108.304 67.358 108.435 66.7915 108.435C66.2251 108.435 65.722 108.304 65.2823 108.042C64.8427 107.78 64.496 107.417 64.2424 106.952C63.9972 106.487 63.8746 105.962 63.8746 105.379C63.8746 104.787 63.9972 104.263 64.2424 103.806C64.496 103.341 64.8427 102.978 65.2823 102.716C65.722 102.454 66.2251 102.322 66.7915 102.322ZM72.5569 105.785C72.5569 106.241 72.6795 106.605 72.9246 106.875C73.1698 107.146 73.4954 107.281 73.9012 107.281C74.3324 107.281 74.679 107.15 74.9411 106.888C75.2032 106.618 75.3301 106.254 75.3216 105.797V102.335H76.6786V108.385H75.3216V107.687C75.1356 107.915 74.8989 108.097 74.6114 108.232C74.3239 108.368 74.028 108.435 73.7236 108.435C73.2417 108.435 72.8105 108.325 72.43 108.106C72.0496 107.886 71.7494 107.581 71.5296 107.193C71.3182 106.795 71.2125 106.343 71.2125 105.835V102.335H72.5569V105.785ZM81.5025 107.281C81.9929 107.281 82.3818 107.108 82.6693 106.761C82.9652 106.406 83.1131 105.941 83.1131 105.366C83.1131 104.791 82.9652 104.331 82.6693 103.984C82.3818 103.629 81.9929 103.451 81.5025 103.451C81.2066 103.451 80.9275 103.536 80.6654 103.705C80.4118 103.874 80.2089 104.106 80.0567 104.402C79.913 104.698 79.8411 105.02 79.8411 105.366C79.8411 105.713 79.913 106.034 80.0567 106.33C80.2089 106.626 80.4118 106.859 80.6654 107.028C80.9275 107.197 81.2066 107.281 81.5025 107.281ZM81.5786 102.322C82.1366 102.322 82.6312 102.454 83.0624 102.716C83.5021 102.969 83.8445 103.329 84.0897 103.794C84.3349 104.25 84.4575 104.774 84.4575 105.366C84.4575 105.958 84.3349 106.487 84.0897 106.952C83.8445 107.417 83.5021 107.78 83.0624 108.042C82.6312 108.296 82.1366 108.423 81.5786 108.423C81.2996 108.423 80.991 108.347 80.6528 108.194C80.323 108.042 80.0482 107.818 79.8284 107.522V111.061H78.4841V102.322H79.8284V103.21C80.0482 102.923 80.3272 102.703 80.6654 102.551C81.0036 102.399 81.308 102.322 81.5786 102.322ZM88.5398 107.281C89.0133 107.281 89.3937 107.108 89.6812 106.761C89.9687 106.415 90.1124 105.954 90.1124 105.379C90.1124 104.812 89.9687 104.356 89.6812 104.009C89.3937 103.654 89.0133 103.477 88.5398 103.477C88.0663 103.477 87.6858 103.65 87.3984 103.997C87.1109 104.343 86.9672 104.804 86.9672 105.379C86.9672 105.954 87.1109 106.415 87.3984 106.761C87.6858 107.108 88.0663 107.281 88.5398 107.281ZM88.5398 102.322C89.1063 102.322 89.6093 102.454 90.049 102.716C90.4886 102.978 90.8311 103.341 91.0763 103.806C91.3299 104.263 91.4567 104.787 91.4567 105.379C91.4567 105.962 91.3299 106.487 91.0763 106.952C90.8311 107.417 90.4886 107.78 90.049 108.042C89.6093 108.304 89.1063 108.435 88.5398 108.435C87.9733 108.435 87.4702 108.304 87.0306 108.042C86.5909 107.78 86.2443 107.417 85.9906 106.952C85.7454 106.487 85.6229 105.962 85.6229 105.379C85.6229 104.787 85.7454 104.263 85.9906 103.806C86.2443 103.341 86.5909 102.978 87.0306 102.716C87.4702 102.454 87.9733 102.322 88.5398 102.322ZM96.946 105.049C96.946 104.567 96.8276 104.191 96.5909 103.92C96.3542 103.641 96.0287 103.502 95.6144 103.502C95.2001 103.51 94.8534 103.663 94.5744 103.959C94.2954 104.246 94.1601 104.61 94.1686 105.049V108.385H92.8242V102.335H94.1686V103.16C94.363 102.923 94.6082 102.728 94.9042 102.576C95.2001 102.424 95.4918 102.348 95.7792 102.348C96.1935 102.348 96.5909 102.441 96.9714 102.627C97.3518 102.813 97.6647 103.105 97.9099 103.502C98.1635 103.899 98.2903 104.398 98.2903 104.998V108.385H96.946V105.049Z" fill="#FF6E3F"/>
</svg>
