<svg width="154" height="154" viewBox="0 0 154 154" fill="none" xmlns="http://www.w3.org/2000/svg">
<rect width="154" height="154" rx="7.24706" fill="#FAFAFA"/>
<g clip-path="url(#clip0_1935_33504)">
<path fill-rule="evenodd" clip-rule="evenodd" d="M72.4049 53.7254C73.1404 53.9573 73.9421 53.6964 74.4014 53.0758C74.9866 52.2995 75.9351 51.7886 77.0004 51.7886C78.0657 51.7886 79.0142 52.2995 79.5994 53.0767C80.0578 53.6964 80.8595 53.9564 81.595 53.7244C82.5254 53.4409 83.5934 53.5849 84.4549 54.2109C85.3164 54.8369 85.7838 55.808 85.8002 56.78C85.8074 57.5509 86.3029 58.233 87.0349 58.4776C87.9534 58.7947 88.7325 59.5393 89.0622 60.5521C89.3911 61.5649 89.1981 62.6247 88.6401 63.421C88.1926 64.0497 88.1926 64.8922 88.641 65.5199C89.1981 66.3171 89.3911 67.377 89.0622 68.3898C88.7325 69.4025 87.9534 70.1472 87.034 70.4633C86.3029 70.7088 85.8074 71.391 85.8011 72.1619C85.7838 73.1339 85.3164 74.105 84.4549 74.7309C83.5934 75.3569 82.5254 75.5009 81.5959 75.2165C80.8604 74.9846 80.0587 75.2455 79.5994 75.866C79.0142 76.6424 78.0657 77.1533 77.0004 77.1533C75.9351 77.1533 74.9866 76.6424 74.4014 75.8651C73.9431 75.2455 73.1413 74.9855 72.4058 75.2174C71.4754 75.5009 70.4074 75.3569 69.5459 74.7309C68.6844 74.105 68.217 73.1339 68.2007 72.1619C68.1934 71.391 67.6979 70.7088 66.966 70.4642C66.0474 70.1472 65.2683 69.4025 64.9386 68.3898C64.6097 67.377 64.8027 66.3171 65.3607 65.5208C65.8082 64.8922 65.8082 64.0497 65.3598 63.4219C64.8027 62.6247 64.6097 61.5649 64.9386 60.5521C65.2683 59.5393 66.0474 58.7947 66.9668 58.4785C67.6979 58.233 68.1934 57.5509 68.1998 56.78C68.217 55.808 68.6844 54.8369 69.5459 54.2109C70.4074 53.5849 71.4754 53.4409 72.4049 53.7254Z" fill="#FF6E3F"/>
<path fill-rule="evenodd" clip-rule="evenodd" d="M72.6771 52.8608C72.6744 52.8599 72.6717 52.859 72.6699 52.8581C71.4804 52.4948 70.1153 52.6769 69.0128 53.4777C67.9113 54.2776 67.3161 55.5195 67.2935 56.7633C67.2935 56.766 67.2935 56.7687 67.2935 56.7724C67.2898 57.1565 67.0434 57.4971 66.6784 57.6194C66.6756 57.6203 66.6738 57.6203 66.6711 57.6212C65.4953 58.0261 64.4979 58.9764 64.0767 60.2718C63.6563 61.5663 63.9045 62.9215 64.6166 63.9406C64.6184 63.9424 64.6202 63.9451 64.622 63.9479C64.8458 64.2604 64.8458 64.6816 64.622 64.9942C64.6211 64.9969 64.6193 64.9987 64.6184 65.0005C63.9045 66.0196 63.6563 67.3739 64.0767 68.6693C64.4979 69.9647 65.4953 70.9141 66.6702 71.3199C66.6729 71.3208 66.6756 71.3217 66.6784 71.3227C67.0434 71.445 67.2907 71.7847 67.2943 72.1697C67.2943 72.1724 67.2943 72.1751 67.2943 72.1769C67.3161 73.4207 67.9113 74.6635 69.0128 75.4634C70.1144 76.2642 71.4795 76.4463 72.6689 76.084C72.6717 76.0831 72.6744 76.0822 72.678 76.0813C73.0449 75.9653 73.4444 76.0948 73.6736 76.4037C73.6745 76.4065 73.6763 76.4083 73.6781 76.4101C74.4264 77.4038 75.6384 78.0588 77 78.0588C78.3615 78.0588 79.5736 77.4038 80.3219 76.411C80.3237 76.4092 80.3255 76.4065 80.3273 76.4047C80.5565 76.0948 80.956 75.9644 81.3229 76.0803C81.3256 76.0813 81.3283 76.0822 81.3301 76.0831C82.5195 76.4463 83.8847 76.2642 84.9871 75.4634C86.0887 74.6635 86.6839 73.4216 86.7065 72.1778C86.7065 72.1751 86.7065 72.1724 86.7065 72.1687C86.7101 71.7847 86.9565 71.444 87.3216 71.3218C87.3243 71.3208 87.3261 71.3208 87.3288 71.3199C88.5047 70.915 89.5021 69.9647 89.9233 68.6693C90.3436 67.3748 90.0954 66.0196 89.3834 65.0005C89.3816 64.9987 89.3798 64.996 89.378 64.9933C89.1542 64.6807 89.1542 64.2595 89.378 63.947C89.3789 63.9442 89.3807 63.9424 89.3816 63.9406C90.0954 62.9215 90.3436 61.5672 89.9233 60.2718C89.5021 58.9764 88.5047 58.027 87.3298 57.6212C87.327 57.6203 87.3243 57.6194 87.3216 57.6185C86.9565 57.4962 86.7092 57.1565 86.7056 56.7715C86.7056 56.7687 86.7056 56.766 86.7056 56.7642C86.6839 55.5204 86.0887 54.2776 84.9871 53.4777C83.8856 52.6769 82.5204 52.4948 81.331 52.8571C81.3283 52.8581 81.3256 52.859 81.3219 52.8599C80.9551 52.9758 80.5556 52.8463 80.3264 52.5374C80.3255 52.5347 80.3237 52.5328 80.3219 52.531C79.5736 51.5373 78.3615 50.8823 77 50.8823C75.6384 50.8823 74.4264 51.5373 73.6781 52.5301C73.6763 52.5319 73.6745 52.5347 73.6727 52.5365C73.4435 52.8463 73.044 52.9767 72.6771 52.8608ZM72.1381 54.591C73.2415 54.9352 74.4418 54.5439 75.1293 53.6145C75.546 53.061 76.2318 52.6941 77 52.6941C77.7682 52.6941 78.453 53.061 78.8752 53.6208C79.56 54.5457 80.763 54.9361 81.8673 54.5874C82.5304 54.3854 83.3004 54.4914 83.9218 54.9434C84.5433 55.3945 84.8821 56.0939 84.8938 56.795C84.9047 57.9455 85.6484 58.9691 86.7473 59.336C87.4022 59.5625 87.963 60.1006 88.2003 60.8316C88.4376 61.5618 88.3 62.3263 87.8977 62.9016C87.2301 63.8383 87.2301 65.1038 87.9032 66.0459C88.2999 66.6139 88.4376 67.3784 88.2003 68.1095C87.963 68.8405 87.4022 69.3786 86.7391 69.6069C85.6484 69.972 84.9047 70.9956 84.8947 72.1543C84.8821 72.8463 84.5433 73.5466 83.9218 73.9977C83.3004 74.4498 82.5313 74.5548 81.86 74.3501C80.763 74.0041 79.5591 74.3963 78.8706 75.3267C78.4539 75.8801 77.7682 76.247 77 76.247C76.2318 76.247 75.5469 75.8801 75.1248 75.3203C74.4399 74.3954 73.2369 74.005 72.1327 74.3537C71.4696 74.5557 70.6996 74.4498 70.0781 73.9977C69.4567 73.5466 69.1179 72.8473 69.1061 72.1461C69.0952 70.9956 68.3515 69.972 67.2527 69.6051C66.5977 69.3786 66.037 68.8405 65.7996 68.1095C65.5623 67.3793 65.7 66.6148 66.1022 66.0395C66.7698 65.1029 66.7699 63.8373 66.0968 62.8952C65.7 62.3272 65.5623 61.5627 65.7996 60.8316C66.037 60.1006 66.5977 59.5625 67.2608 59.3342C68.3515 58.9691 69.0953 57.9455 69.1052 56.7869C69.1179 56.0948 69.4567 55.3945 70.0781 54.9434C70.6987 54.4923 71.4677 54.3863 72.1381 54.591Z" fill="#2A2A2A"/>
<path fill-rule="evenodd" clip-rule="evenodd" d="M79.2647 65.3766C80.0148 65.3766 80.6235 65.9853 80.6235 66.7354C80.6235 67.4855 80.0148 68.0942 79.2647 68.0942C78.5146 68.0942 77.9059 67.4855 77.9059 66.7354C77.9059 65.9853 78.5146 65.3766 79.2647 65.3766ZM79.0772 61.1126L73.6419 66.5479C73.2886 66.9012 73.2886 67.4755 73.6419 67.8288C73.9952 68.1821 74.5695 68.1821 74.9228 67.8288L80.3581 62.3935C80.7114 62.0402 80.7114 61.4659 80.3581 61.1126C80.0048 60.7593 79.4305 60.7593 79.0772 61.1126ZM74.7353 60.8472C75.4854 60.8472 76.0941 61.4559 76.0941 62.206C76.0941 62.9561 75.4854 63.5648 74.7353 63.5648C73.9852 63.5648 73.3765 62.9561 73.3765 62.206C73.3765 61.4559 73.9852 60.8472 74.7353 60.8472Z" fill="white"/>
</g>
<path d="M59.5168 101.226C58.6206 101.226 57.8216 101.023 57.1199 100.618C56.4266 100.212 55.8812 99.6453 55.4838 98.9182C55.0949 98.191 54.9004 97.3667 54.9004 96.4451C54.9004 95.5151 55.0949 94.6907 55.4838 93.972C55.8812 93.2449 56.4266 92.6784 57.1199 92.2726C57.8216 91.8668 58.6206 91.6639 59.5168 91.6639C60.1425 91.6639 60.7343 91.7865 61.2924 92.0316C61.8504 92.2768 62.345 92.6193 62.7762 93.0589L61.8884 93.934C61.601 93.5958 61.2459 93.3295 60.8231 93.135C60.4088 92.9406 59.9692 92.8433 59.5041 92.8433C58.8616 92.8433 58.2951 92.9955 57.8047 93.2999C57.3143 93.5958 56.9339 94.0186 56.6633 94.5681C56.3927 95.1092 56.2575 95.7349 56.2575 96.4451C56.2575 97.1553 56.3927 97.7852 56.6633 98.3348C56.9339 98.8759 57.3143 99.2986 57.8047 99.603C58.2951 99.8989 58.8616 100.047 59.5041 100.047C59.9776 100.047 60.413 99.9497 60.8104 99.7552C61.2078 99.5607 61.5502 99.3029 61.8377 98.9816L62.7762 99.8313C61.8461 100.77 60.7597 101.235 59.5168 101.226ZM66.7915 100.034C67.265 100.034 67.6455 99.8609 67.933 99.5142C68.2204 99.1676 68.3642 98.7068 68.3642 98.1319C68.3642 97.5654 68.2204 97.1088 67.933 96.7622C67.6455 96.4071 67.265 96.2295 66.7915 96.2295C66.3181 96.2295 65.9376 96.4028 65.6501 96.7495C65.3627 97.0961 65.2189 97.5569 65.2189 98.1319C65.2189 98.7068 65.3627 99.1676 65.6501 99.5142C65.9376 99.8609 66.3181 100.034 66.7915 100.034ZM66.7915 95.0754C67.358 95.0754 67.8611 95.2065 68.3007 95.4686C68.7404 95.7307 69.0828 96.0942 69.328 96.5592C69.5817 97.0158 69.7085 97.54 69.7085 98.1319C69.7085 98.7152 69.5817 99.2395 69.328 99.7045C69.0828 100.169 68.7404 100.533 68.3007 100.795C67.8611 101.057 67.358 101.188 66.7915 101.188C66.2251 101.188 65.722 101.057 65.2823 100.795C64.8427 100.533 64.496 100.169 64.2424 99.7045C63.9972 99.2395 63.8746 98.7152 63.8746 98.1319C63.8746 97.54 63.9972 97.0158 64.2424 96.5592C64.496 96.0942 64.8427 95.7307 65.2823 95.4686C65.722 95.2065 66.2251 95.0754 66.7915 95.0754ZM72.5569 98.5377C72.5569 98.9943 72.6795 99.3578 72.9246 99.6284C73.1698 99.8989 73.4954 100.034 73.9012 100.034C74.3324 100.034 74.679 99.9032 74.9411 99.6411C75.2032 99.3705 75.3301 99.0069 75.3216 98.5504V95.0881H76.6786V101.138H75.3216V100.44C75.1356 100.668 74.8989 100.85 74.6114 100.985C74.3239 101.121 74.028 101.188 73.7236 101.188C73.2417 101.188 72.8105 101.078 72.43 100.859C72.0496 100.639 71.7494 100.334 71.5296 99.9454C71.3182 99.5481 71.2125 99.0957 71.2125 98.5884V95.0881H72.5569V98.5377ZM81.5025 100.034C81.9929 100.034 82.3818 99.8609 82.6693 99.5142C82.9652 99.1591 83.1131 98.6941 83.1131 98.1192C83.1131 97.5442 82.9652 97.0835 82.6693 96.7368C82.3818 96.3817 81.9929 96.2041 81.5025 96.2041C81.2066 96.2041 80.9275 96.2887 80.6654 96.4578C80.4118 96.6269 80.2089 96.8594 80.0567 97.1553C79.913 97.4512 79.8411 97.7725 79.8411 98.1192C79.8411 98.4658 79.913 98.7871 80.0567 99.083C80.2089 99.379 80.4118 99.6115 80.6654 99.7806C80.9275 99.9497 81.2066 100.034 81.5025 100.034ZM81.5786 95.0754C82.1366 95.0754 82.6312 95.2065 83.0624 95.4686C83.5021 95.7222 83.8445 96.0815 84.0897 96.5466C84.3349 97.0031 84.4575 97.5273 84.4575 98.1192C84.4575 98.711 84.3349 99.2395 84.0897 99.7045C83.8445 100.169 83.5021 100.533 83.0624 100.795C82.6312 101.049 82.1366 101.176 81.5786 101.176C81.2996 101.176 80.991 101.1 80.6528 100.947C80.323 100.795 80.0482 100.571 79.8284 100.275V103.814H78.4841V95.0754H79.8284V95.9632C80.0482 95.6757 80.3272 95.4559 80.6654 95.3037C81.0036 95.1515 81.308 95.0754 81.5786 95.0754ZM88.5398 100.034C89.0133 100.034 89.3937 99.8609 89.6812 99.5142C89.9687 99.1676 90.1124 98.7068 90.1124 98.1319C90.1124 97.5654 89.9687 97.1088 89.6812 96.7622C89.3937 96.4071 89.0133 96.2295 88.5398 96.2295C88.0663 96.2295 87.6858 96.4028 87.3984 96.7495C87.1109 97.0961 86.9672 97.5569 86.9672 98.1319C86.9672 98.7068 87.1109 99.1676 87.3984 99.5142C87.6858 99.8609 88.0663 100.034 88.5398 100.034ZM88.5398 95.0754C89.1063 95.0754 89.6093 95.2065 90.049 95.4686C90.4886 95.7307 90.8311 96.0942 91.0763 96.5592C91.3299 97.0158 91.4567 97.54 91.4567 98.1319C91.4567 98.7152 91.3299 99.2395 91.0763 99.7045C90.8311 100.169 90.4886 100.533 90.049 100.795C89.6093 101.057 89.1063 101.188 88.5398 101.188C87.9733 101.188 87.4702 101.057 87.0306 100.795C86.5909 100.533 86.2443 100.169 85.9906 99.7045C85.7454 99.2395 85.6229 98.7152 85.6229 98.1319C85.6229 97.54 85.7454 97.0158 85.9906 96.5592C86.2443 96.0942 86.5909 95.7307 87.0306 95.4686C87.4702 95.2065 87.9733 95.0754 88.5398 95.0754ZM96.946 97.8021C96.946 97.3202 96.8276 96.9439 96.5909 96.6734C96.3542 96.3944 96.0287 96.2549 95.6144 96.2549C95.2001 96.2633 94.8534 96.4155 94.5744 96.7114C94.2954 96.9989 94.1601 97.3625 94.1686 97.8021V101.138H92.8242V95.0881H94.1686V95.9124C94.363 95.6757 94.6082 95.4812 94.9042 95.3291C95.2001 95.1769 95.4918 95.1008 95.7792 95.1008C96.1935 95.1008 96.5909 95.1938 96.9714 95.3798C97.3518 95.5658 97.6647 95.8575 97.9099 96.2549C98.1635 96.6523 98.2903 97.1511 98.2903 97.7514V101.138H96.946V97.8021Z" fill="#FF6E3F"/>
<defs>
<clipPath id="clip0_1935_33504">
<rect width="28.9882" height="28.9882" fill="white" transform="translate(62.5059 49.9766)"/>
</clipPath>
</defs>
</svg>
