<svg width="21" height="20" viewBox="0 0 21 20" fill="none" xmlns="http://www.w3.org/2000/svg">
<path fill-rule="evenodd" clip-rule="evenodd" d="M10.5 1C5.52944 1 1.5 5.02944 1.5 10C1.5 14.9706 5.52944 19 10.5 19C15.4706 19 19.5 14.9706 19.5 10C19.5 5.02944 15.4706 1 10.5 1ZM11.797 7.63323C12.0924 7.33783 12.5713 7.33783 12.8667 7.63323C13.1621 7.92864 13.1621 8.40758 12.8667 8.70298L11.5697 10L12.8667 11.297C13.1621 11.5924 13.1621 12.0714 12.8667 12.3668C12.5713 12.6622 12.0924 12.6622 11.797 12.3668L10.5 11.0698L9.20292 12.3668C8.90752 12.6622 8.42857 12.6622 8.13317 12.3668C7.83777 12.0714 7.83777 11.5924 8.13317 11.297L9.43021 10L8.13317 8.70298C7.83777 8.40758 7.83777 7.92864 8.13317 7.63323C8.42857 7.33783 8.90752 7.33783 9.20292 7.63323L10.5 8.93027L11.797 7.63323Z" fill="#ff6e3f"/>
</svg>
