<svg width="15" height="14" viewBox="0 0 15 14" fill="none" xmlns="http://www.w3.org/2000/svg">
<path d="M5.06902 10.9585H9.48565M3.65234 11.5416H5.16933M9.15793 11.5416H11.1929" stroke="#E6E6E6" stroke-width="0.288235" stroke-linecap="round" stroke-linejoin="round"/>
<path fill-rule="evenodd" clip-rule="evenodd" d="M4.33588 2.66993C4.32402 2.67004 4.3123 2.67251 4.30141 2.67719C4.29052 2.68188 4.28066 2.6887 4.27243 2.69723C4.26419 2.70576 4.25774 2.71584 4.25344 2.72689C4.24914 2.73794 4.24708 2.74975 4.24739 2.7616C4.24739 2.82386 4.22058 2.8524 4.15861 2.8524C4.03669 2.84951 4.03669 3.03399 4.15861 3.03254C4.21828 3.03254 4.24739 3.04896 4.24739 3.11929C4.24451 3.24122 4.42898 3.24122 4.42754 3.11929C4.42754 3.05559 4.45751 3.03254 4.5166 3.03254C4.63824 3.03543 4.63824 2.85067 4.5166 2.8524C4.4359 2.8524 4.42725 2.80628 4.42725 2.7616C4.42725 2.71058 4.3869 2.66935 4.33588 2.66993ZM1.88818 5.58314C1.87192 5.58332 1.85586 5.58672 1.84092 5.59315C1.82599 5.59958 1.81247 5.60892 1.80116 5.62061C1.78985 5.6323 1.78097 5.64609 1.77503 5.66123C1.76909 5.67637 1.76621 5.69254 1.76655 5.7088C1.76655 5.79441 1.72994 5.83332 1.64491 5.83332C1.47774 5.83044 1.47774 6.08294 1.64491 6.08064C1.72677 6.08064 1.76655 6.10339 1.76655 6.19995C1.76367 6.36712 2.01616 6.36712 2.01385 6.19995C2.01385 6.11204 2.05478 6.08064 2.13607 6.08064C2.30324 6.08352 2.30324 5.83101 2.13607 5.83332C2.02567 5.83332 2.01385 5.7702 2.01385 5.7088C2.01405 5.69224 2.01093 5.67581 2.00468 5.66047C1.99844 5.64514 1.98919 5.63121 1.97748 5.6195C1.96577 5.60779 1.95184 5.59855 1.9365 5.5923C1.92117 5.58606 1.90474 5.58294 1.88818 5.58314Z" fill="#FFCC00"/>
<path fill-rule="evenodd" clip-rule="evenodd" d="M2.10476 7.59403C2.06729 7.59403 2.03731 7.62545 2.03789 7.66321C2.03789 7.7099 2.01771 7.73122 1.9713 7.73122C1.87936 7.72834 1.87936 7.86844 1.9713 7.867C2.01627 7.867 2.03789 7.87937 2.03789 7.93269C2.035 8.02435 2.17509 8.02435 2.17365 7.93269C2.17365 7.88455 2.19613 7.867 2.2408 7.867C2.33275 7.867 2.33275 7.73006 2.2408 7.7315C2.18027 7.7315 2.17365 7.69694 2.17365 7.66293C2.17376 7.65383 2.17206 7.64479 2.16864 7.63636C2.16522 7.62794 2.16016 7.62029 2.15374 7.61384C2.14733 7.6074 2.13969 7.60231 2.13128 7.59885C2.12287 7.5954 2.11385 7.59396 2.10476 7.59403Z" fill="#12141A"/>
<path fill-rule="evenodd" clip-rule="evenodd" d="M8.17503 2.43213C8.16317 2.43221 8.15145 2.43464 8.14054 2.43929C8.12963 2.44394 8.11976 2.45072 8.1115 2.45923C8.10323 2.46773 8.09675 2.47778 8.09241 2.48882C8.08808 2.49985 8.08599 2.51165 8.08625 2.52351C8.08625 2.58606 8.05945 2.6143 7.99748 2.6143C7.87584 2.61142 7.87584 2.79618 7.99748 2.79445C8.05714 2.79445 8.08625 2.81088 8.08625 2.8815C8.08337 3.00342 8.26813 3.00342 8.2664 2.8815C8.2664 2.81751 8.29638 2.79445 8.35546 2.79445C8.47739 2.79733 8.47739 2.61286 8.35546 2.6143C8.27505 2.6143 8.2664 2.56818 8.2664 2.52351C8.26652 2.51148 8.26423 2.49953 8.25968 2.48839C8.25513 2.47726 8.2484 2.46715 8.2399 2.45864C8.23139 2.45014 8.22127 2.4434 8.21013 2.43885C8.19899 2.4343 8.18706 2.43202 8.17503 2.43213Z" fill="#FF6E3F"/>
<path fill-rule="evenodd" clip-rule="evenodd" d="M11.2725 5.39551C11.235 5.39551 11.2054 5.42722 11.2059 5.46469C11.2059 5.51167 11.1858 5.533 11.1391 5.533C11.0474 5.53012 11.0474 5.6702 11.1391 5.66876C11.184 5.66876 11.2059 5.68115 11.2059 5.73419C11.203 5.82613 11.3431 5.82613 11.3417 5.73419C11.3417 5.68605 11.3642 5.66876 11.4088 5.66876C11.5005 5.67164 11.5005 5.53155 11.4088 5.53328C11.3483 5.53328 11.3417 5.49841 11.3417 5.46469C11.3418 5.45557 11.3401 5.44653 11.3367 5.43809C11.3332 5.42964 11.3281 5.42196 11.3217 5.41552C11.3152 5.40907 11.3076 5.40398 11.2991 5.40054C11.2907 5.39711 11.2816 5.3954 11.2725 5.39551Z" fill="#12141A"/>
<path fill-rule="evenodd" clip-rule="evenodd" d="M13.115 7.64063C13.0988 7.64078 13.0827 7.64416 13.0678 7.65055C13.0528 7.65695 13.0393 7.66623 13.0279 7.67789C13.0166 7.68955 13.0077 7.70334 13.0017 7.71846C12.9957 7.73358 12.9928 7.74974 12.9931 7.76599C12.9931 7.85189 12.9565 7.8908 12.8715 7.8908C12.7043 7.88791 12.7043 8.14042 12.8715 8.13811C12.9533 8.13811 12.9931 8.16087 12.9931 8.25714C12.9902 8.42432 13.243 8.42432 13.2404 8.25714C13.2404 8.16952 13.2816 8.13811 13.3626 8.13811C13.5298 8.14099 13.5298 7.8882 13.3626 7.8908C13.2525 7.8908 13.2404 7.82739 13.2404 7.76599C13.2406 7.74949 13.2374 7.73311 13.2312 7.71783C13.2249 7.70254 13.2157 7.68869 13.204 7.67701C13.1924 7.66534 13.1785 7.6561 13.1632 7.64985C13.1479 7.6436 13.1315 7.64048 13.115 7.64063Z" fill="#FF6E3F"/>
<path d="M3.47702 6.81112C4.30656 6.35859 5.34882 6.667 5.80222 7.49827C6.2559 8.32983 5.94633 9.36431 5.11679 9.81713C4.28754 10.2697 3.25018 9.96989 2.7965 9.13833C2.68382 8.93271 2.6146 8.70613 2.59313 8.47264C2.57166 8.23916 2.5984 8.00375 2.67169 7.78103C2.80596 7.36649 3.09423 7.01931 3.47702 6.81112Z" fill="#FFCC00"/>
<path fill-rule="evenodd" clip-rule="evenodd" d="M3.47284 7.63525L3.66538 8.40398H3.37109V8.59623H3.71323L3.83342 9.07643H4.06747L4.22975 8.59623H4.43382L4.59004 9.07643H4.83014L4.95034 8.59623H5.29247V8.40398H4.99847L5.19044 7.63525H4.99242L4.80016 8.40398H4.57188L4.44592 8.01976H4.21764L4.09168 8.40398H3.8634L3.67115 7.63525H3.47284ZM4.33178 8.29589L4.36781 8.40398H4.29575L4.33178 8.29589ZM3.91153 8.59623H4.02568L3.95938 8.8003L3.91153 8.59623ZM4.63789 8.59623H4.75203L4.70418 8.8003L4.63789 8.59623Z" fill="#FF6E3F"/>
<path d="M4.74964 6.77559C3.90281 6.52656 3.01447 7.01341 2.76486 7.86284C2.51496 8.71256 3.00063 9.59225 3.84804 9.84186C3.87716 9.8505 3.90684 9.85599 3.93596 9.86262C3.55129 9.72784 3.23316 9.45035 3.04736 9.08756C2.86157 8.72478 2.82235 8.30444 2.9378 7.91355C3.05258 7.52154 3.31302 7.18831 3.66569 6.98223C4.01836 6.77615 4.43652 6.71285 4.83439 6.80529C4.80614 6.79491 4.77876 6.78424 4.74964 6.77559Z" fill="white"/>
<path d="M4.76397 6.77934C5.61081 7.02809 6.09418 7.91846 5.84457 8.76789C5.78568 8.96909 5.68761 9.15666 5.55599 9.31984C5.42438 9.48301 5.26181 9.61858 5.07764 9.71873C4.89347 9.81888 4.69132 9.88164 4.48281 9.90341C4.27431 9.92519 4.06355 9.90555 3.86266 9.84561C3.83326 9.83696 3.80559 9.82544 3.77734 9.81535C4.59737 10.0085 5.2779 9.36222 5.4837 8.66181C5.68978 7.9614 5.46928 7.04077 4.67664 6.7583C4.70575 6.76464 4.73486 6.77069 4.76426 6.77934H4.76397Z" fill="#FF6E3F"/>
<path d="M2.94289 7.26567C3.08704 7.07878 3.26855 6.92398 3.47584 6.81112C4.30538 6.35859 5.34764 6.667 5.80103 7.49827C5.90739 7.69312 5.97167 7.89892 5.99732 8.10587M5.99732 8.52871C5.97358 8.71741 5.91834 8.90077 5.83389 9.07117C5.67742 9.38796 5.4267 9.64855 5.11618 9.81713C4.28722 10.2697 3.24986 9.96989 2.79589 9.13833C2.63941 8.85228 2.5679 8.52747 2.5898 8.20214M2.67137 7.78132C2.68982 7.72425 2.71115 7.66862 2.73565 7.61414" stroke="#12141A" stroke-width="0.288235" stroke-miterlimit="10" stroke-linecap="round" stroke-linejoin="round"/>
<path d="M11.1177 6.8513C11.9247 7.34361 12.1784 8.40056 11.6855 9.20906C11.192 10.0176 10.1414 10.2669 9.33465 9.77458C8.52788 9.28256 8.26876 8.23454 8.76193 7.42575C8.88367 7.22533 9.0453 7.05206 9.23679 6.9167C9.42828 6.78134 9.64554 6.68678 9.8751 6.63887C9.93361 6.62676 9.9927 6.61754 10.0521 6.61149C10.424 6.57214 10.7986 6.65624 11.1177 6.8513Z" fill="#FFCC00"/>
<path d="M10.2615 6.72215C9.37897 6.70082 8.64685 7.40124 8.62552 8.28641C8.62016 8.49599 8.65628 8.70456 8.73181 8.90014C8.80733 9.09572 8.92078 9.27443 9.06561 9.42601C9.21044 9.5776 9.38381 9.69907 9.57575 9.78342C9.76768 9.86777 9.9744 9.91333 10.184 9.91751C10.2146 9.91751 10.2445 9.91463 10.2745 9.91463C9.86805 9.88406 9.48888 9.69843 9.21548 9.39611C8.94207 9.09378 8.79535 8.69794 8.80567 8.29045C8.81508 7.882 8.98045 7.49261 9.26784 7.20222C9.55523 6.91183 9.94285 6.74243 10.3512 6.72877C10.3212 6.72589 10.2918 6.72245 10.2613 6.72187L10.2615 6.72215Z" fill="white"/>
<path d="M10.2768 6.72198C11.1591 6.74331 11.8564 7.47801 11.8353 8.36318C11.8305 8.57278 11.7843 8.77936 11.6994 8.97104C11.6145 9.16272 11.4925 9.33572 11.3405 9.48009C11.1885 9.62447 11.0094 9.73737 10.8136 9.81231C10.6178 9.88725 10.4092 9.92276 10.1996 9.91677C10.169 9.91677 10.1394 9.91247 10.1094 9.91016C10.9516 9.88393 11.4416 9.08378 11.4595 8.35396C11.4768 7.62444 11.0257 6.79203 10.1869 6.72458C10.2169 6.72458 10.2466 6.72169 10.2768 6.72198Z" fill="#FF6E3F"/>
<path d="M10.4576 6.61778C10.6916 6.6493 10.9164 6.72921 11.1177 6.8524C11.9247 7.34442 12.1784 8.40138 11.6855 9.20959C11.5739 9.39309 11.4287 9.55386 11.2575 9.68345M10.8908 9.89415C10.6405 9.99905 10.3689 10.043 10.0983 10.0223C9.8277 10.0017 9.56587 9.91706 9.33438 9.7754C8.5279 9.28338 8.26877 8.23536 8.76194 7.42657C8.93146 7.14792 9.17707 6.92351 9.46985 6.77977M9.87511 6.63998C9.93362 6.62758 9.99271 6.61836 10.0521 6.6123" stroke="#12141A" stroke-width="0.288235" stroke-miterlimit="10" stroke-linecap="round" stroke-linejoin="round"/>
<path fill-rule="evenodd" clip-rule="evenodd" d="M9.29735 7.63525L9.4896 8.40398H9.19531V8.59623H9.53774L9.65764 9.07643H9.89198L10.054 8.59623H10.258L10.4143 9.07643H10.6544L10.7746 8.59623H11.117V8.40398H10.8227L11.0147 7.63525H10.8166L10.6244 8.40398H10.3964L10.2701 8.01976H10.0419L9.9159 8.40398H9.68762L9.49565 7.63525H9.29735ZM10.1563 8.29589L10.192 8.40398H10.12L10.1563 8.29589ZM9.73575 8.59623H9.84989L9.7836 8.8003L9.73575 8.59623ZM10.4621 8.59623H10.5765L10.5284 8.8003L10.4621 8.59623Z" fill="#FF6E3F"/>
<path d="M7.21572 4.13672C8.6373 4.13672 9.79139 5.29485 9.79139 6.71931C9.79139 8.14434 8.6373 9.28749 7.21572 9.28749C5.79472 9.28749 4.64062 8.14434 4.64062 6.71931C4.64062 6.21029 4.7882 5.73499 5.04271 5.33434C5.20695 5.07591 5.41558 4.84855 5.65896 4.66275C6.10589 4.32094 6.65306 4.13605 7.21572 4.13672Z" fill="#FFCC00"/>
<path d="M7.21552 4.30889C5.88791 4.30889 4.8125 5.38863 4.8125 6.72028C4.8125 8.05279 5.88675 9.11637 7.21552 9.11637C7.26164 9.11637 7.30631 9.11176 7.35156 9.10916C6.08621 9.03941 5.08373 8.00667 5.08373 6.72028C5.08373 5.43475 6.08679 4.387 7.35099 4.31581C7.30602 4.31292 7.26135 4.30859 7.21552 4.30859V4.30889Z" fill="white"/>
<path d="M7.23761 4.30908C8.56522 4.30908 9.64092 5.38882 9.64092 6.72047C9.64092 8.05298 8.56666 9.11656 7.23761 9.11656C7.19149 9.11656 7.14682 9.11194 7.10156 9.10935C8.36692 9.0396 9.07511 7.81864 9.07511 6.72047C9.07511 5.62229 8.36605 4.38719 7.10214 4.316C7.14739 4.31311 7.19178 4.30908 7.23761 4.30908Z" fill="#FF6E3F"/>
<path d="M6.18441 4.35232C6.50948 4.20962 6.86071 4.1362 7.21572 4.13672C8.6373 4.13672 9.79139 5.29485 9.79139 6.71931C9.79139 7.05309 9.72798 7.3713 9.61297 7.66299M9.30744 8.22102C9.1398 8.45275 8.93475 8.65498 8.70071 8.81939C8.26593 9.12504 7.74718 9.28856 7.21572 9.28749C5.79472 9.28749 4.64062 8.14435 4.64062 6.71931C4.64062 6.21029 4.7882 5.73499 5.04271 5.33434M5.45345 4.83713C5.51888 4.77545 5.58748 4.71723 5.65896 4.66275" stroke="#12141A" stroke-width="0.288235" stroke-miterlimit="10" stroke-linecap="round" stroke-linejoin="round"/>
<path fill-rule="evenodd" clip-rule="evenodd" d="M5.84283 5.61768L6.15038 6.84758H5.67969V7.15514H6.22733L6.4193 7.92358H6.79401L7.05342 7.15514H7.38028L7.62989 7.92358H8.01439L8.20636 7.15514H8.754V6.84758H8.28332L8.59086 5.61768H8.2738L7.96626 6.84758H7.60106L7.3993 6.23276H7.03439L6.83263 6.84758H6.46743L6.15989 5.61768H5.84283ZM7.21685 6.67493L7.27449 6.84787H7.1592L7.21685 6.67493ZM6.54439 7.15542H6.72685L6.62106 7.48197L6.54439 7.15542ZM7.70685 7.15542H7.8893L7.81263 7.48197L7.70685 7.15542Z" fill="#FF6E3F"/>
</svg>
