<svg width="22" height="22" viewBox="0 0 22 22" fill="none" xmlns="http://www.w3.org/2000/svg">
<g clip-path="url(#clip0_2643_29522)">
<path d="M11 4.88889L6.72222 0H0L8.55556 10.3889L15.5962 7.48611L11 4.88889Z" fill="#55ACEE"/>
<path d="M15.2778 0L11 4.88889L14.2939 9.35733L15.0437 8.44739L22 0H15.2778Z" fill="#3B88C3"/>
<path d="M14.1801 9.79416C14.229 9.66155 14.2602 9.52038 14.2602 9.37066C14.2602 9.04651 14.1314 8.73563 13.9022 8.50642C13.673 8.27721 13.3621 8.14844 13.038 8.14844H8.9637C8.63955 8.14844 8.32867 8.27721 8.09946 8.50642C7.87025 8.73563 7.74148 9.04651 7.74148 9.37066C7.74148 9.52038 7.77203 9.66155 7.82153 9.79416C5.83053 10.91 4.48242 13.0373 4.48242 15.4818C4.48181 19.0818 7.40048 22.0005 11.0005 22.0005C14.6006 22.0005 17.5193 19.0818 17.5193 15.4818C17.5193 13.0373 16.1711 10.91 14.1801 9.79416Z" fill="#FFAC33"/>
<path d="M11.8588 11.3672H10.8071L9.13876 12.6701C9.09985 12.7193 9.07608 12.7787 9.07031 12.8412V13.5611C9.07031 13.6747 9.16198 13.7774 9.27626 13.7774H10.3732V18.9193C10.3732 19.0342 10.4649 19.1362 10.5901 19.1362H11.8588C11.9725 19.1362 12.0641 19.0336 12.0641 18.9193V11.5835C12.0641 11.4699 11.9731 11.3672 11.8588 11.3672Z" fill="#9E5200"/>
</g>
<defs>
<clipPath id="clip0_2643_29522">
<rect width="22" height="22" fill="white"/>
</clipPath>
</defs>
</svg>
