<svg width="22" height="22" viewBox="0 0 22 22" fill="none" xmlns="http://www.w3.org/2000/svg">
<g clip-path="url(#clip0_2643_39279)">
<path d="M11 4.88889L6.72222 0H0L8.55556 10.3889L15.5962 7.48611L11 4.88889Z" fill="#55ACEE"/>
<path d="M15.2778 0L11 4.88889L14.2939 9.35733L15.0437 8.44739L22 0H15.2778Z" fill="#3B88C3"/>
<path d="M14.1801 9.79416C14.229 9.66155 14.2602 9.52038 14.2602 9.37066C14.2602 9.04651 14.1314 8.73563 13.9022 8.50642C13.673 8.27721 13.3621 8.14844 13.038 8.14844H8.9637C8.63955 8.14844 8.32867 8.27721 8.09946 8.50642C7.87025 8.73563 7.74148 9.04651 7.74148 9.37066C7.74148 9.52038 7.77203 9.66155 7.82153 9.79416C5.83053 10.91 4.48242 13.0373 4.48242 15.4818C4.48181 19.0818 7.40048 22.0005 11.0005 22.0005C14.6006 22.0005 17.5193 19.0818 17.5193 15.4818C17.5193 13.0373 16.1711 10.91 14.1801 9.79416Z" fill="#FF8A3B"/>
<path d="M8.63002 17.9369L9.34991 17.217C9.38582 17.1779 9.43515 17.1538 9.48806 17.1495C9.54096 17.1452 9.59354 17.161 9.6353 17.1938C9.6353 17.1938 10.3436 17.72 10.8917 17.72C11.3837 17.72 11.8866 17.3087 11.8866 16.8057C11.8866 16.3028 11.3721 15.8805 10.5269 15.8805H10.1364C10.0796 15.8785 10.0256 15.855 9.98543 15.8147C9.94526 15.7745 9.9219 15.7204 9.92007 15.6636V14.7151C9.92007 14.5892 10.0227 14.4982 10.1364 14.4982H10.5269C11.3269 14.4982 11.7491 14.1101 11.7491 13.6188C11.7491 13.1269 11.3269 12.762 10.8349 12.762C10.332 12.762 10.0124 13.0248 9.84124 13.2185C9.76057 13.3102 9.6243 13.3102 9.53324 13.2307L8.83596 12.5451C8.74369 12.4644 8.7553 12.3281 8.83596 12.2481C8.83596 12.2481 9.7728 11.2422 11.0176 11.2422C12.3431 11.2422 13.4859 12.0537 13.4859 13.3334C13.4859 14.2128 12.8229 14.8642 12.3089 15.1038V15.1386C12.8461 15.3672 13.6912 16.0755 13.6912 17.0581C13.6912 18.3036 12.6059 19.241 11.0286 19.241C9.59007 19.241 8.85796 18.5321 8.61841 18.2241C8.54935 18.1422 8.56157 18.0164 8.63002 17.9369Z" fill="#7C4119"/>
</g>
<defs>
<clipPath id="clip0_2643_39279">
<rect width="22" height="22" fill="white"/>
</clipPath>
</defs>
</svg>
