<svg width="22" height="22" viewBox="0 0 22 22" fill="none" xmlns="http://www.w3.org/2000/svg">
<g clip-path="url(#clip0_2643_38960)">
<path d="M11 4.88889L6.72222 0H0L8.55556 10.3889L15.5962 7.48611L11 4.88889Z" fill="#55ACEE"/>
<path d="M15.2778 0L11 4.88889L14.2939 9.35733L15.0437 8.44739L22 0H15.2778Z" fill="#3B88C3"/>
<path d="M14.1801 9.79416C14.229 9.66155 14.2602 9.52038 14.2602 9.37066C14.2602 9.04651 14.1314 8.73563 13.9022 8.50642C13.673 8.27721 13.3621 8.14844 13.038 8.14844H8.9637C8.63955 8.14844 8.32867 8.27721 8.09946 8.50642C7.87025 8.73563 7.74148 9.04651 7.74148 9.37066C7.74148 9.52038 7.77203 9.66155 7.82153 9.79416C5.83053 10.91 4.48242 13.0373 4.48242 15.4818C4.48181 19.0818 7.40048 22.0005 11.0005 22.0005C14.6006 22.0005 17.5193 19.0818 17.5193 15.4818C17.5193 13.0373 16.1711 10.91 14.1801 9.79416Z" fill="#CCD6DD"/>
<path d="M13.446 17.6755H11.2808C11.8174 16.9214 12.7548 15.6991 13.1202 15.0471C13.3946 14.5099 13.5657 14.1677 13.5657 13.5621C13.5657 12.2934 12.6063 11.2539 10.9722 11.2539C9.61246 11.2539 8.68663 12.3735 8.68663 12.3735C8.60657 12.4651 8.61818 12.602 8.69824 12.6711L9.39552 13.3794C9.41608 13.4011 9.44085 13.4184 9.46833 13.4302C9.49581 13.442 9.52541 13.4481 9.55532 13.4481C9.58524 13.4481 9.61484 13.442 9.64232 13.4302C9.66979 13.4184 9.69457 13.4011 9.71513 13.3794C9.93207 13.1392 10.355 12.808 10.8231 12.808C11.4629 12.808 11.829 13.196 11.829 13.6305C11.829 13.9501 11.6805 14.2704 11.532 14.4989C10.8573 15.5268 9.16635 17.824 8.50391 18.6923V18.9209C8.50391 19.0358 8.59496 19.1378 8.72085 19.1378H13.446C13.5028 19.1356 13.5567 19.112 13.5969 19.0718C13.6371 19.0316 13.6606 18.9777 13.6629 18.9209V17.893C13.6612 17.836 13.6378 17.7817 13.5975 17.7413C13.5572 17.7008 13.503 17.6773 13.446 17.6755Z" fill="#627077"/>
</g>
<defs>
<clipPath id="clip0_2643_38960">
<rect width="22" height="22" fill="white"/>
</clipPath>
</defs>
</svg>
